<?xml version="1.0" encoding="utf-8"?>
<!-- Generator: Adobe Illustrator 24.2.3, SVG Export Plug-In . SVG Version: 6.00 Build 0)  -->
<svg version="1.1" id="Capa_1" xmlns="http://www.w3.org/2000/svg" xmlns:xlink="http://www.w3.org/1999/xlink" x="0px" y="0px"
	 viewBox="0 0 512 512" style="enable-background:new 0 0 512 512;" xml:space="preserve">
<style type="text/css">
	.st0{fill:#FFFFFF;stroke:#4F58C1;stroke-width:1.5;stroke-linecap:round;stroke-linejoin:round;stroke-miterlimit:10;}
	.st1{fill:#FFFFFF;stroke:#000102;stroke-width:5;stroke-linecap:round;stroke-linejoin:round;stroke-miterlimit:10;}
	.st2{fill:#FFFFFF;}
</style>
<path class="st0" d="M109.2,317.5c-13.3,0-24,10.7-24,24s10.7,24,24,24s24-10.7,24-24S122.5,317.5,109.2,317.5z M109.2,349.5
	c-4.4,0-8-3.6-8-8s3.6-8,8-8s8,3.6,8,8S113.6,349.5,109.2,349.5z"/>
<path class="st0" d="M413.2,317.5c-13.3,0-24,10.7-24,24s10.7,24,24,24s24-10.7,24-24S426.5,317.5,413.2,317.5z M413.2,349.5
	c-4.4,0-8-3.6-8-8s3.6-8,8-8s8,3.6,8,8S417.6,349.5,413.2,349.5z"/>
<path class="st1" d="M471.3,229.8l-85.9-23.4l-55.9-55.9c-16-15.9-37.7-24.9-60.3-25h-4l-21.6-28.8l-12.8,9.6l14.4,19.2h-216
	c-4.4,0-8,3.6-8,8c0,2.2,0.9,4.3,2.5,5.8l36.9,35.2l-38.3,67c-0.7,1.2-1.1,2.6-1.1,4v96c0,4.4,3.6,8,8,8h24.6
	c4.4,30.6,32.7,51.8,63.3,47.4c24.6-3.5,43.9-22.8,47.4-47.4h193.3c4.4,30.6,32.7,51.8,63.3,47.4c24.6-3.5,43.9-22.8,47.4-47.4h24.7
	c4.4,0,8-3.6,8-8v-72C501,251.1,488.9,235,471.3,229.8z"/>
<polygon class="st1" points="49.2,141.5 79.4,141.5 68.7,160.2 "/>
<path class="st1" d="M37.2,253.5h8c4.4,0,8,3.6,8,8v16c0,4.4-3.6,8-8,8h-8V253.5z"/>
<circle class="st1" cx="109.2" cy="341.5" r="40"/>
<circle class="st2" cx="413.2" cy="341.5" r="40"/>
<path class="st1" d="M485.2,333.5h-16.6c-4.4-30.6-32.7-51.8-63.3-47.4c-24.6,3.5-43.9,22.8-47.4,47.4H164.6
	c-4.4-30.6-32.7-51.8-63.3-47.4c-24.6,3.5-43.9,22.8-47.4,47.4H37.2v-32h8c11.5,0,21.4-8.2,23.5-19.5c11.9-8.2,26-12.5,40.5-12.5
	c28.3,0,53.8,17.1,64.7,43.2c1.3,2.9,4.2,4.8,7.3,4.8h56v-16h-50.9c-14.4-29.4-44.3-48.1-77.1-48c-13.9,0-27.6,3.3-40,9.6v-1.6
	c0-13.3-10.7-24-24-24H43l54.9-96h171.3c18.4,0.1,36,7.3,49,20.3l57.4,57.4c1,1,2.2,1.7,3.6,2.1l58.1,15.8v16.4
	c0,22.1,17.9,40,40,40h8v40H485.2z"/>
<path class="st1" d="M485.2,277.5h-8c-13.3,0-24-10.7-24-24v-12.1l13.8,3.8c10.6,3.4,17.9,13.2,18.2,24.3V277.5z"/>
<rect x="173.2" y="253.5" class="st1" width="16" height="16"/>
<rect x="205.2" y="253.5" class="st1" width="32" height="16"/>
<path class="st1" d="M298.9,167.8c-5.5-6.3-13.3-10-21.7-10.3h-168c-3,0-5.8,1.7-7.2,4.4l-32,64c-2,4-0.4,8.8,3.6,10.7
	c1.1,0.6,2.3,0.8,3.6,0.8h268.7l13.7,13.7c4.1,5.2,6.1,11.7,5.7,18.3v8h16v-8c0.5-10.8-3.2-21.4-10.3-29.7L298.9,167.8z"/>
<polygon class="st1" points="181.2,221.5 90.1,221.5 114.1,173.5 181.2,173.5 "/>
<path class="st1" d="M197.2,221.5v-48h80c4.1,0.4,7.8,2.5,10.3,5.7l18.3,18.3l-24,24H197.2z"/>
<rect x="397.2" y="253.5" class="st1" width="16" height="16"/>
<rect x="253.2" y="301.5" class="st1" width="96" height="16"/>
</svg>
