<?xml version="1.0" encoding="utf-8"?>
<!-- Generator: Adobe Illustrator 24.2.3, SVG Export Plug-In . SVG Version: 6.00 Build 0)  -->
<svg version="1.1" xmlns="http://www.w3.org/2000/svg" xmlns:xlink="http://www.w3.org/1999/xlink" x="0px" y="0px"
	 viewBox="0 0 339.2 508.7" style="enable-background:new 0 0 339.2 508.7;" xml:space="preserve">
<style type="text/css">
	.st0{display:none;}
	.st1{display:inline;fill:#FFFFFF;}
	.st2{fill:#393762;}
	.st3{fill:#ECE0D3;}
	.st4{fill:#E48868;}
	.st5{fill:#DE6879;}
	.st6{fill:#EFC33B;}
	.st7{fill:#C55469;}
	.st8{fill:#4E587F;}
	.st9{fill:#7FBBF7;}
	.st10{fill:#454F78;}
	.st11{fill:#DC5955;}
	.st12{fill:#A34745;}
	.st13{fill:#639BDA;}
	.st14{fill:#E8A12B;}
	.st15{fill:#BA745D;}
</style>
<g id="BACKGROUND" class="st0">
	<rect x="-550.3" y="8.7" class="st1" width="500" height="500"/>
</g>
<g id="OBJECTS">
	<g>
		<g>
			<path class="st2" d="M93,228.2c-3.5,10.6-3.3,22.5,1.4,32.6c4.7,10.1,13.9,18.2,24.7,20.7c6.3,1.5,13.2,1,19.1-1.7
				c5.9-2.8,10.7-8,12.5-14.2c1.8-6.3,0.3-13.5-4.2-18.2c-3.4-3.5-8.2-5.6-11.1-9.5c-5-6.7-2.9-16.8-7.8-23.6
				c-4.5-6.2-14-7.3-20.8-3.8C99.9,213.9,95.5,220.9,93,228.2z"/>
		</g>
		<g>
			<g>
				<path class="st3" d="M148.2,430L148.2,430c0,0,9.9,3.8,10,4.7h-14.8l-1-9.3L148.2,430z"/>
			</g>
			<g>
				<path class="st3" d="M81.7,408.7l-3.5,2.9c0,0,0.5,9.7-0.1,10.4l-7.6-12.3l7.6-5.4L81.7,408.7z"/>
			</g>
			<g>
				<path class="st4" d="M120.4,355.3c0,0-2.6,23.1-3.1,24c-0.5,0.9-39.1,32.3-39.1,32.3l-2.9-5.3l27.3-38.9l-3.9-46.1L120.4,355.3z
					"/>
			</g>
			<g>
				<path class="st4" d="M97.8,296.8c9.8,1,19.7,1.8,28.2,6.2l-2.3,7.6c0,0,13.4,39,13.9,42.2c0.5,3.3,10.6,77.2,10.6,77.2l-5.3-0.7
					L120.4,357c0,0-28.2-33.5-26.8-46.7C94.1,304.4,96,299.9,97.8,296.8z"/>
			</g>
			<g>
				<path class="st5" d="M133,337.9c-4.1-12.2-9.3-27.3-9.3-27.3l2.3-7.6c-8.6-4.4-18.4-5.2-28.2-6.2c-1.8,3.2-3.6,7.7-4.3,13.6
					c-0.4,4.1,2.1,10.3,5.7,16.7l1.7,20.2c3.4-0.5,6.8-1.2,10.2-2.1c0,0,0,0,0,0c0.4-0.1,0.8-0.2,1.1-0.3c0.4-0.1,0.8-0.2,1.3-0.3
					l0,0c3.3-0.9,6.6-1.9,9.8-3C126.5,340.4,129.7,339.1,133,337.9z"/>
			</g>
			<g>
				<g>
					<path class="st4" d="M119,250.2c0,0-1.2-10.6,0.7-12.4c1.3-1.1,5.5,0.6,6.7-1.1c0.4-0.5-0.3-4.5-0.6-7.2
						c-0.1-0.7,2,0.1,1.9-0.6c-0.1-0.9-3.6-4.4-3.5-5.3c1.8-14.4-22-14.8-22.7-3.5c-0.4,7,3,14.1,9.6,18l-3.9,7.5L119,250.2z"/>
				</g>
			</g>
			<g>
				<path class="st4" d="M125.7,276.1l10.4,16.9c0,0,22.4,11.2,23.7,11.7c1.3,0.4,8,6.1,8.8,7.4c0.8,1.3-2.5,1.9-3.1,1.9
					c-0.6,0-2.6-0.9-2.6-0.9s-4,2.4-4.2,2.3c-0.2-0.1-2.8-5.8-2.8-5.8s-26.1-6.6-28.1-8.4c-2.1-1.7-10.1-21.2-10.1-21.2L125.7,276.1
					z"/>
			</g>
			<g>
				<path class="st6" d="M125,272.1l10.5,22.3c0,0,10.2-2.2,13.7,2.4c3.6,4.5,7.5,6.5,7.5,6.5l-1,6.3c0,0-25.8-2.3-29.8-6.6
					c-3.9-4.3-3.7-27.6-3.7-27.6L125,272.1z"/>
			</g>
			<g>
				<polygon class="st3" points="119.2,250.5 121.9,245.6 111.2,238.1 107.5,243.6 				"/>
			</g>
			<g>
				<path class="st6" d="M99.6,249.6c0,0,6.7-9.4,14-6.1c1.8,0.8,16,19.2,16.3,22.3c0.3,3.1-5.6,13.9-5.6,13.9l6.1,36.4l-41.8-11.6
					l9.3-22.4C97.8,282.1,94.8,269.9,99.6,249.6z"/>
			</g>
			<g>
				<path class="st7" d="M108.2,341.1c-0.1,0-0.2-0.1-0.3-0.2c-2.8-3.9-5.4-7.5-7.7-11.3c-0.1-0.2-0.1-0.4,0.1-0.5
					c0.2-0.1,0.4-0.1,0.5,0.1c2.3,3.7,4.8,7.3,7.6,11.2c0.1,0.2,0.1,0.4-0.1,0.6C108.3,341,108.2,341.1,108.2,341.1z"/>
			</g>
		</g>
		<g>
			<g>
				<g>
					<path class="st4" d="M219.7,244.7l2.4-9.1c0,0,3.4,0.9,4.9-0.5c0.6-0.6,1.2-3.2,1.4-7.4c0-0.4,1.7,0.5,1.7,0c0-0.9-3-5-2.7-6.6
						c1-6.1,0.5-7.7-1.3-9.4c-3.9-3.8-17.6-4.4-19.4,2.3c-1.9,6.6-1.3,9.8,2.1,19.3l-2.1,9.4L219.7,244.7z"/>
				</g>
			</g>
			<g>
				<path class="st3" d="M253.4,417.9l3.5,10.5c0,0,10.8,0.6,11.1,1.4l-15.5,4.2l-4-14.8L253.4,417.9z"/>
			</g>
			<g>
				<polygon class="st3" points="171.7,434.9 162.8,434.9 156.4,429.9 164.4,416.8 168.8,419.5 163.5,429.3 165.2,433.2 				"/>
			</g>
			<g>
				<path class="st4" d="M193.6,366.8c-3.4-0.6-4.4-0.6-7.7-1.5L160.7,423l4.6,3.1l30.1-46.2l4.7-11.1
					C197.7,368.3,195.9,367.2,193.6,366.8z"/>
			</g>
			<g>
				<path class="st4" d="M238,362.6c-5.2,1.9-6.4,4.1-11.8,5.5l0.8,3.9l23.4,54.6l5.5-1.1L238,362.6z"/>
			</g>
			<g>
				<path class="st8" d="M241.5,362.9l-10.8-42.1h-40.2l-7.1,46.2c3.4,0.9,6.8,1.8,10.3,2.5c2.4,0.5,4.8,0.9,7.2,1.3l10.9-28.1
					l11.6,27C229,368.2,236.1,364.9,241.5,362.9z"/>
			</g>
			<g>
				<path class="st9" d="M206.5,235.1c0,0,8.2,2.6,12.4,7.3c4.1,4.8,10.8,18.5,11,20.1c0.1,1.5-2.1,18.5-2.1,18.5l7.4,45
					c0,0-31.7,4.9-47.6,0l8.3-37.2c0,0-1.2-13.1-2.5-14.6c-1.3-1.5,1-14.5,2.1-20.6c1-6,5.8-12.9,7.4-14.3
					C204.5,237.9,206.5,235.1,206.5,235.1z"/>
			</g>
			<g>
				<path class="st9" d="M209.2,236.1c-3.8-2.5-17.2-3-18.7-2c-1.6,1,2.1,4.3,1.7,6.4c-0.4,2.1-8.2,4.9-5.5,9.6
					c2.6,4.7,10.4,10.2,10.4,10.2L209.2,236.1z"/>
			</g>
			<g>
				<path class="st10" d="M213.1,338.8c-0.1,0-0.1,0-0.2-0.1c-0.2-0.1-0.2-0.4-0.1-0.5l4.4-6.9c0.1-0.2,0.4-0.2,0.5-0.1
					c0.2,0.1,0.2,0.4,0.1,0.5l-4.4,6.9C213.3,338.8,213.2,338.8,213.1,338.8z"/>
			</g>
			<g>
				<path class="st2" d="M228.8,203.4c0.1,0.8-0.3,1.6-0.9,2.2c0.4-1.4-1-2.9-2.5-2.9c-1.5,0-2.5,0.8-3.3,2.1
					c0.4-0.6,1.5-0.5,1.8,0.2c0.3,0.7-0.1,1.5-0.7,1.9c-0.6,0.4-1.4,0.5-2.1,0.5c-1.7,0-3.4-0.5-5.1-0.9c-1.7-0.5-3.4-0.9-5.1-0.9
					c-1.7,0-3.5,0.5-4.8,1.7c-1.2,1.2-1.7,3.6-0.9,5.1c-4.4,1.8-1.3,9.4,0,12.8c1.3,3.4,3.6,8.1,3.6,8.1l4.5-4.4c0,0-3.4-4-1.9-5.7
					c1.5-1.8,3.1,1,3.1,1s0.5,8.4,1.7,8.9c1.2,0.5,8,5.5,11,4.4c2.9-1.1,1.3-9.7,1.3-9.7l-4.3-0.5c-4-0.5-6.9-3.9-6.8-7.8l0,0
					c0,0,4.7,1.6,5.5-2.4c3.3-0.5,7.2-1.8,8.4-4.9C232.6,209.1,231.6,205.1,228.8,203.4z"/>
			</g>
			<g>
				<path class="st11" d="M221.8,207.3c0,0-7.3,16.8-15.4,20.6c0,0-6.3-10.6-6.1-15.4c0.1-4.8,3.6-7.8,9-8.2
					C214.7,203.9,221.8,207.3,221.8,207.3z"/>
			</g>
			<g id="XMLID_59_">
				<g>
					<path class="st4" d="M170,309c-0.7-1.1,0.8-3.8,2-5.2c-0.9-1.5-0.9-4.9-1.7-6.5c-4.9,8.6-8.3,12.1-8.7,13.2
						c-0.9,2.5-1.3,4,0.8,4.1s0.9,3,2.7,2.8c1.8-0.2,0.9,3.2,2.6,2.3c1.7-1,1.5-5.1,1.5-5.1S172.8,313.3,170,309z"/>
				</g>
			</g>
			<g>
				<path class="st9" d="M200.6,242.4c-5.4,2.8-35.8,60.7-35.8,60.7l7.9,5c0,0,6.9-11.2,10.6-14c3.8-2.8,5-4,5.3-9.5
					c0.4-5.5,17.6-19.1,20.3-25.1C211.6,253.4,204.3,240.5,200.6,242.4z"/>
			</g>
			<g>
				<path class="st12" d="M208.1,223.2c-0.1,0-0.2,0-0.3-0.1c-0.2-0.1-0.2-0.4,0-0.6c3.4-3.7,6.2-7.8,8.4-12.3
					c0.1-0.2,0.3-0.3,0.5-0.2c0.2,0.1,0.3,0.3,0.2,0.5c-2.2,4.6-5.1,8.8-8.5,12.5C208.3,223.1,208.2,223.2,208.1,223.2z"/>
			</g>
			<g>
				<path class="st13" d="M193.4,274.6c-0.2,0-0.4-0.1-0.4-0.3c-2.2-11.6-0.8-27.2,10-36.3c0.2-0.1,0.4-0.1,0.6,0
					c0.1,0.2,0.1,0.4,0,0.6c-10.5,8.9-11.9,24.2-9.7,35.6C193.8,274.3,193.7,274.5,193.4,274.6C193.4,274.6,193.4,274.6,193.4,274.6
					z"/>
			</g>
		</g>
		<g>
			<path class="st9" d="M233,274.9h-4.7c0,0-11.3-26.2-15.2-29.4c-3.9-3.2-4.9,27.4,1.5,36.6c6.4,9.2,8,9.2,20.3,4.4
				C247.4,281.5,233,274.9,233,274.9z"/>
		</g>
		<g>
			<g>
				<path class="st4" d="M269.8,264.4c0.5-1.2,0.2-4.8-0.2-4.5c-0.5,0.3-0.9,2.4-0.9,2.4l-0.2,1c0,0-0.7-0.3-0.8,0
					c0,0.3-0.3,1.5-0.3,1.5l-0.1,2.4L269.8,264.4z"/>
			</g>
			<g>
				<polygon class="st3" points="264.1,269.1 266.9,258.8 269.2,250.6 272.1,251.7 266.7,269.4 				"/>
			</g>
			<g>
				<path class="st4" d="M234.8,275.2l2.4,9.3c0,0,23.8-9.3,25.1-9.8c0,0,3.7-2.9,4.4-3.4c0.7-0.6,3-6.3,3.2-6.8
					c0.2-0.6-4.2-0.8-4.2-0.8s-0.1-2.7-0.4-3.6c-0.1-0.5-1.1-2.6-1.6-1.2l-1,4.2l-1.4,1.4c-0.7,1-1.6,5.3-1.6,5.3L234.8,275.2z"/>
			</g>
			<g>
				<path class="st9" d="M233,274.9c0,0,2.5-7,7.2-4.2c4.7,2.9,5.3-0.7,5.3-0.7l12.7-3.5l4.1,8.2L235,286.4L233,274.9z"/>
			</g>
		</g>
		<g>
			<path class="st13" d="M222.2,290.1c-1.6,0-3.4-0.6-4.9-1.8c-1.8-1.4-3.2-3.2-4.4-5c-3.7-5.3-6.9-10.9-9.6-16.7
				c-1.8-3.8-3.4-7.9-3.6-12.3c-0.1-4,1-7.5,3.1-9.4c1.5-1.4,3.5-1.9,5.8-1.5c0.2,0,0.4,0.2,0.3,0.4c0,0.2-0.2,0.4-0.5,0.3
				c-2.1-0.3-3.8,0.1-5.2,1.3c-1.9,1.7-3,5-2.8,8.8c0.2,4.3,1.8,8.3,3.5,12c2.7,5.8,5.9,11.4,9.6,16.6c1.2,1.7,2.5,3.5,4.3,4.8
				c1.9,1.4,4,1.9,5.8,1.4c0.2-0.1,0.4,0.1,0.5,0.3c0.1,0.2-0.1,0.4-0.3,0.5C223.3,290.1,222.8,290.1,222.2,290.1z"/>
		</g>
		<g>
			<path class="st13" d="M225.3,272.6C225.3,272.6,225.3,272.6,225.3,272.6c-0.2,0-0.4-0.2-0.4-0.4c0.3-3.4,0.3-7.2-2.1-9.5
				c-0.5-0.4-1-0.8-1.5-1.1c-0.5-0.3-1-0.6-1.4-1c-1.5-1.3-2.4-3.1-3.2-4.9c-1-2.1-1.9-4-3.8-5.1c-0.2-0.1-0.3-0.4-0.1-0.5
				c0.1-0.2,0.3-0.3,0.5-0.1c2.1,1.2,3.1,3.3,4.1,5.4c0.8,1.7,1.7,3.5,3,4.6c0.4,0.4,0.9,0.7,1.4,1c0.6,0.4,1.1,0.7,1.6,1.2
				c2.7,2.5,2.6,6.5,2.3,10.1C225.7,272.4,225.5,272.6,225.3,272.6z"/>
		</g>
		<g>
			<path class="st3" d="M126.6,294l-39-8.3l-7.3,28.5l39.8,9.5C122.7,313.9,123.5,303.7,126.6,294z"/>
		</g>
		<g id="XMLID_61_">
			<g>
				<path class="st4" d="M101.6,316.2c-0.9-1,0.1-3.9,0.9-5.5c-1.2-1.3-1.9-4.6-2.9-6c-3.1,9.4-5.8,13.5-5.9,14.7
					c-0.4,2.7-0.4,4.2,1.6,3.9c2.1-0.3,1.5,2.8,3.2,2.2c1.7-0.5,1.5,3,3,1.7c1.5-1.3,0.5-5.3,0.5-5.3S105.2,319.9,101.6,316.2z"/>
			</g>
		</g>
		<g>
			<path class="st6" d="M99.6,249.6c-3.7,4.8-5,64.2-5,64.2l9.2,1.3c0,0,1.6-13.1,3.8-17.2c2.3-4.1,2.9-5.7,0.9-10.9
				c-2-5.1,5.7-18.7,5.7-25.4C114.2,254.9,102.1,246.2,99.6,249.6z"/>
		</g>
		<g>
			<path class="st14" d="M127.7,301.6c-0.2,0-0.4-0.1-0.4-0.3l-3.5-21.5c0-0.1,0-0.1,0-0.2l1.5-3.6c0.1-0.2,0.3-0.3,0.5-0.2
				c0.2,0.1,0.3,0.3,0.2,0.5l-1.4,3.5l3.5,21.4C128.1,301.3,128,301.5,127.7,301.6C127.7,301.6,127.7,301.6,127.7,301.6z"/>
		</g>
		<g>
			<path class="st14" d="M108.7,285.3C108.7,285.3,108.6,285.3,108.7,285.3c-0.3,0-0.4-0.2-0.4-0.4l2.1-21.4c0.2-2.1,0.4-4.2,0-6.2
				c-0.5-2.2-1.8-3.9-3.5-4.6c-0.2-0.1-0.3-0.3-0.2-0.5c0.1-0.2,0.3-0.3,0.5-0.2c1.9,0.8,3.4,2.7,3.9,5.1c0.5,2.2,0.3,4.3,0.1,6.5
				l-2.1,21.4C109,285.2,108.9,285.3,108.7,285.3z"/>
		</g>
		<g>
			<path class="st15" d="M119.2,356c-0.1,0-0.2-0.1-0.3-0.2l-6.6-9.1c-0.1-0.2-0.1-0.4,0.1-0.6c0.2-0.1,0.4-0.1,0.6,0.1l6.6,9.1
				c0.1,0.2,0.1,0.4-0.1,0.6C119.3,355.9,119.3,356,119.2,356z"/>
		</g>
		<g>
			<path class="st2" d="M111.2,238.1c11.4-6.8,16.5-18,16.5-18l-5.4-7.9c0,0-19-5.6-23.9,7.9C93.5,233.6,111.2,238.1,111.2,238.1z"
				/>
		</g>
	</g>
</g>
<g id="DESIGNED_BY_FREEPIK">
</g>
</svg>
