<?xml version="1.0" encoding="utf-8"?>
<!-- Generator: Adobe Illustrator 24.2.3, SVG Export Plug-In . SVG Version: 6.00 Build 0)  -->
<svg version="1.1" id="Layer_1" xmlns="http://www.w3.org/2000/svg" xmlns:xlink="http://www.w3.org/1999/xlink" x="0px" y="0px"
	 viewBox="0 0 512 512" style="enable-background:new 0 0 512 512;" xml:space="preserve">
<style type="text/css">
	.st0{fill:#FFFFFF;stroke:#000102;stroke-width:5;stroke-linecap:round;stroke-linejoin:round;stroke-miterlimit:10;}
</style>
<path class="st0" d="M294.7,155c-0.1-0.1-0.3-0.2-0.5-0.3l-19.2-6.7v-5.6c0-2.2-1.3-4.2-3.2-5.3c-0.2-0.1-0.8-0.2-0.8-0.3l0,0
	l-13-4.8v-0.7c14-7.1,22.6-20.3,24.1-35.9c6.5-3.5,9.8-10.8,8.2-18c-0.8-3.6-3.1-6.6-6.2-8.5l0.6-9c1.8-26.3-18.1-49.2-44.4-51
	s-49.2,18.1-51,44.4c-0.2,2.2-0.2,4.4,0,6.6l0.6,9c-3.2,1.8-5.4,4.9-6.3,8.5c-1.8,7.2,1.6,14.6,8.1,18c1.3,15,10.1,28.3,23.2,35.5
	v1.3l-11.5,4.5l0,0c-0.2,0.1-0.4,0.2-0.5,0.3c-1.9,1.1-3,3.1-2.9,5.3v5.6l-19.6,6.7c-0.2,0.1-0.5,0.2-0.7,0.3
	c-10.3,4.8-17.4,14.7-18.5,26c0,0.2-0.1,0.3-0.1,0.5V300c0,11.6,9.9,21.1,21.9,21.1c1.9,0,3.8-0.2,5.7-0.7l5.2,164.9
	c0,0.1,0,0.2,0,0.4c0.9,9.8,9.2,17.4,19.1,17.4h49c9.9,0,18.1-7.5,19.1-17.4c0-0.1,0-0.3,0-0.4l5.2-164.7c1.6,0.4,3.2,0.5,4.8,0.5
	c12.1,0,21.8-9.4,21.8-21.1V181.5c0-0.2,0.1-0.4,0-0.5C311.9,169.7,304.9,159.8,294.7,155z M301,181.8V280h-13.3l3.5-113.4
	C296.7,169.9,301,175.6,301,181.8z M199.5,285l-0.2-5h76.3l-0.2,5H199.5z M199,268l-3.4-105.9l6.6-2.2l14.4,18.3
	c2,2.6,5.7,3,8.3,1.1l0.7-0.6l-5.1,56.5c-0.1,1.4,0.2,2.7,1,3.8l11,16.6c1.8,2.8,5.5,3.5,8.3,1.7c0.7-0.4,1.3-1,1.7-1.7l11-16.6
	c0.7-1.1,1.1-2.5,1-3.8l-5.1-55.8c2.6,1.8,6.2,1.3,8.1-1.2l14.4-18.3l7.4,2.5L276,268H199z M242.3,234.2l-4.8,7.3l-4.8-7.3l4.8-53.1
	L242.3,234.2z M247.9,162.7l13.1-8.3l-9.2,11.7l-3.8-2.9L247.9,162.7z M246,149.4l-9,5.9l-10-6.5v-13.2c3.2,0.8,6.5,1.2,9.8,1.2
	c3.1,0,6.2-0.3,9.2-1V149.4z M226.6,162.9l-4.2,3.2l-9.2-11.7L226.6,162.9z M210.8,32.3c13.5-14.5,36.2-15.2,50.6-1.7
	c5.6,5.2,9.3,12.1,10.7,19.6c-3.5-7.6-11-12.5-19.3-12.9L249,37c-2-0.1-4,0.9-5.2,2.5c-6.8,9.5-18.1,14.6-29.7,13.3l-6.5-0.7
	c-2-0.2-4.1,0.4-5.7,1.7c-0.3,0.2-0.5,0.5-0.8,0.7C201.7,46.3,205.1,38.4,210.8,32.3z M203.5,91.2c0-2.9-2.1-5.4-5-5.9
	c-1.9-0.3-3.4-2-3.3-4c0-0.2,0-0.5,0.1-0.7c0.2,0.1,0.3,0.2,0.5,0.2c5.8,2.3,8.5,3.1,11.3,1.4c1.6-1,2.7-2.8,2.9-4.7l1-12.9l2,0.2
	c14.7,1.6,29.2-4.3,38.7-15.7l0.7,0c3.8,0.2,7.3,2.5,9,5.9l6,24.9c0.8,3.2,4,5.2,7.2,4.4c1-0.2,1.9-0.7,2.7-1.4l1.5-1.4
	c-0.1,1.8-1.5,3.4-3.3,3.7c-2.9,0.5-5,3-5,6c0.1,18.5-14.9,33.6-33.4,33.7s-33.6-14.9-33.7-33.4C203.5,91.5,203.5,91.3,203.5,91.2
	L203.5,91.2z M183.7,166.2l3.7,113.8H173v-98.2C173.9,175.2,177.9,169.4,183.7,166.2L183.7,166.2z M182.9,309.1
	c-5.4,0-9.9-4.1-9.9-9.1v-8h14.8l0.5,15.5C186.6,308.5,184.8,309,182.9,309.1L182.9,309.1z M205.9,484.5L199.9,297H232v194h-19
	C209.3,491,206.3,488.2,205.9,484.5L205.9,484.5z M262,491h-18V297h31.1l-5.9,187.5C268.8,488.2,265.7,491,262,491z M291.2,309.1
	c-1.6-0.1-3.1-0.5-4.5-1.2l0.5-15.9H301v8C301,305,296.6,309.1,291.2,309.1z"/>
</svg>
