<?xml version="1.0" encoding="utf-8"?>
<!-- Generator: Adobe Illustrator 24.2.3, SVG Export Plug-In . SVG Version: 6.00 Build 0)  -->
<svg version="1.1" xmlns="http://www.w3.org/2000/svg" xmlns:xlink="http://www.w3.org/1999/xlink" x="0px" y="0px"
	 viewBox="0 0 339.2 508.7" style="enable-background:new 0 0 339.2 508.7;" xml:space="preserve">
<style type="text/css">
	.st0{display:none;}
	.st1{display:inline;fill:#FFFFFF;}
	.st2{fill:#393762;}
	.st3{fill:#ECE0D3;}
	.st4{fill:#DE6879;}
	.st5{fill:#E48868;}
	.st6{fill:#BA745D;}
	.st7{fill:#49478A;}
	.st8{fill:#C55469;}
	.st9{fill:#CFB199;}
</style>
<g id="BACKGROUND" class="st0">
	<rect x="-550.3" y="8.7" class="st1" width="500" height="500"/>
</g>
<g id="OBJECTS">
	<g>
		<g>
			<g>
				<path class="st2" d="M195.3,302.3l-25.9,4.4l-25.9-4.4l-0.2,126h6l19.9-112.7l1.8,112.7h6c0,0,10.4-47.4,10.9-51.7
					c0.4-4.3-1.6-17.7-1.6-17.7L195.3,302.3z"/>
			</g>
			<g>
				<path class="st2" d="M149.1,210.7c0,0,1.8-17.1,4.1-25.7c2.3-8.6,11.5-11.7,17.2-11.2c5.6,0.5,16.3,2.8,16.4,16
					c0.1,13.2,1.9,21.8,1.9,21.8L149.1,210.7z"/>
			</g>
			<g>
				<path class="st3" d="M151.2,242.8l3.3,21.4c-8.5,12.5-13.1,31.3-15.4,45.8H201c-5.4-32.5-17.7-45.7-17.7-45.7l4.9-21.7
					c4.4-4.2,4.7-10.9,4.7-13.8c0-3,0-11.1,0-11.1s-19.8-9.6-24.2-9.6c-4.4,0-22.7,8.6-22.7,8.6v11.9
					C144.5,237.1,151.2,242.8,151.2,242.8z"/>
			</g>
			<g>
				<path class="st4" d="M154,299.9l1.7-87.6c0,0-9.8,2.5-12.8,5.3c-3,2.8-9.8,53.8-10.5,69.2c-0.1,1.8,1.9,6.2,1.9,6.2
					c-0.1,2.1-0.3,4.4-0.4,7H154z"/>
			</g>
			<g>
				<path class="st2" d="M188.1,242.4c-0.1,0-0.2,0-0.2-0.1c-0.2-0.1-0.3-0.4-0.1-0.6c3-4.8,3.5-11.1,1.3-16.4
					c-0.1-0.1-0.1-0.3,0-0.4c0.4-0.7,0.7-1.4,1-2.2c0.3-0.8,0.7-1.5,1.1-2.2c0.1-0.2,0.4-0.3,0.6-0.2c0.2,0.1,0.3,0.4,0.2,0.6
					c-0.4,0.7-0.7,1.4-1,2.2c-0.3,0.7-0.6,1.4-0.9,2c2.3,5.5,1.7,12-1.4,17C188.4,242.4,188.2,242.4,188.1,242.4z"/>
			</g>
			<g>
				<path class="st5" d="M164.8,201.5v10.9c0,0,5.5,9.3,10.6,0.2l-0.4-11.1H164.8z"/>
			</g>
			<g>
				<path class="st5" d="M167,175.8c-9.4,1.2-10.9,12.1-8.6,20.6c1.7,6.4,5.5,12.8,11.5,12.7c6-0.2,9.6-8.4,10.7-13.4
					C182.3,187.5,182,173.8,167,175.8z"/>
			</g>
			<g>
				<g>
					<path class="st5" d="M159.5,194c0,0-0.4-3.6-3.3-2.4c-2.9,1.2,0.6,9.3,3.9,8.3C163.3,199,159.5,194,159.5,194z"/>
				</g>
				<g>
					<path class="st5" d="M178.7,193.8c0,0,0.1-3.6,3.1-2.6c3,1,0,9.3-3.2,8.6C175.3,199.1,178.7,193.8,178.7,193.8z"/>
				</g>
			</g>
			<g>
				<path class="st2" d="M179.7,178.4c-0.7-0.3-1.5-0.5-2.4-0.5c-0.2-0.6-0.6-1.1-1.1-1.4c-3.3-1.8-11-1.5-14.4,0
					c-3.4,1.5-7.4,7.8-8.2,11.4c-1,3.8,0,7.9,1,11.7c0.3,1.1,0.6,2.3,1.6,2.9c0.8,0.5,1.9,0.3,2.8,0c5.2-1.3,10.1-4.2,13.8-8.1
					c0.5-0.6,1-1.2,1.5-1.8c0,0,0,0,0,0c1.3,3.6,3.6,6.8,6.5,9.2c0.3,0.3,0.7,0.5,1.1,0.5c0.7,0,1.1-0.7,1.4-1.4
					c1.1-2.3,2.1-4.7,2.2-7.3C185.7,191.3,182,179.5,179.7,178.4z"/>
			</g>
			<g>
				<path class="st6" d="M169.9,209.5c-1.4,0-2.8-0.4-4.1-1.1c-0.2-0.1-0.3-0.4-0.2-0.6c0.1-0.2,0.4-0.3,0.6-0.2
					c2.3,1.4,5.4,1.2,7.6-0.2c0.2-0.1,0.5-0.1,0.6,0.1c0.1,0.2,0.1,0.5-0.1,0.6C173.1,209,171.5,209.5,169.9,209.5z"/>
			</g>
			<g>
				<path class="st4" d="M201.9,299.9c-0.1-2-0.2-3.9-0.3-5.7c0,0,1.3-5.6,1.2-7.7c-0.7-15.4-6.9-66.1-9.9-69
					c-3-2.8-11.6-5.3-11.6-5.3l1,87.7H201.9z"/>
			</g>
			<g>
				<g>
					<path class="st4" d="M192.9,217.6c3.1,2.1,5.1,7.9,6.5,12.7c1.4,4.8,14.3,17.9,12.7,22.5c-1.6,4.7-2.1,5-0.2,10.8
						c1.9,5.8-9.2,7.1-13.6,5.9s-14.1-7.2-14.1-7.2l-0.4-9.3l4.8,0.7L192.9,217.6z"/>
				</g>
			</g>
			<g>
				<g>
					<path class="st4" d="M142.8,217.6c-3.1,2.1-4.9,7.9-6.3,12.7c-1.4,4.8-14.3,17.9-12.7,22.5c1.6,4.7,2.1,5,0.2,10.8
						c-1.9,5.8,9.2,7.1,13.6,5.9s14.1-7.2,14.1-7.2l0.4-9.3l-4.8,0.7L142.8,217.6z"/>
				</g>
			</g>
			<g>
				<polygon class="st3" points="149.2,428.3 147.4,435.9 137,435.9 142.2,432.1 143.3,428.3 				"/>
			</g>
			<g>
				<polygon class="st3" points="171,428.3 171,435.9 181.4,435.9 176.2,432.1 177,428.3 				"/>
			</g>
		</g>
		<g>
			<polygon class="st2" points="141.7,254.6 143.3,229.4 188.1,229.4 189.6,258.9 141.7,258.9 			"/>
		</g>
		<g>
			<path class="st7" d="M166.2,247.6c-1.4,0-2.6-0.7-3.3-1.7c-0.5-0.8-0.7-1.8-0.6-2.7c0.2-1.3,1.1-2.5,2.3-3
				c0.5-0.2,0.9-0.3,1.5-0.3c1.5,0,2.9,0.9,3.6,2.1c0.9,1.8,0.2,4.1-1.5,5.2C167.5,247.4,166.8,247.6,166.2,247.6z M166,240.7
				c-0.4,0-0.8,0.1-1.1,0.2c-0.9,0.4-1.6,1.3-1.8,2.3c-0.1,0.7,0.1,1.5,0.5,2.1c0.5,0.8,1.5,1.3,2.6,1.3c0.5,0,1-0.1,1.4-0.4
				c1.3-0.8,1.8-2.6,1.2-3.9C168.3,241.4,167.2,240.7,166,240.7z"/>
		</g>
		<g>
			<path class="st5" d="M197.4,253c0,0-2.4-4.6-3.8-4.6l-1.8,4.2c0,0-7.8-1.4-7.9-0.9c-0.1,0.5-0.7,2.6-0.7,2.6l3.2,0.2
				c0,0-0.8,1.4-0.5,1.9c0.3,0.5,0.9,0.9,0.9,0.9s-0.1,1.4,0.3,2.6c0.3,1.3,0.1,2.3,0.9,3.3c0.8,1,8-0.3,9-0.5
				c0.1,0,0.2-0.1,0.3-0.1C201.2,260.7,201.3,255.1,197.4,253L197.4,253z"/>
		</g>
		<g>
			<g>
				<path class="st5" d="M136,255c0,0,2.4-4.6,3.8-4.6l1.8,4.2c0,0,7.8-1.4,7.9-0.9c0.1,0.5,0.7,2.6,0.7,2.6l-3.2,0.2
					c0,0,0.8,1.4,0.5,1.9c-0.3,0.5-0.9,0.9-0.9,0.9s0.1,1.4-0.3,2.6c-0.3,1.3-0.1,2.3-0.9,3.3c-0.8,1-8-0.3-9-0.5
					c-0.1,0-0.2-0.1-0.3-0.1C132.3,262.7,132.2,257.1,136,255L136,255z"/>
			</g>
		</g>
		<g>
			<path class="st8" d="M134.8,254.9c-0.2,0-0.3-0.1-0.4-0.2c-0.9-1.5-1.9-2.9-3-4.1c-0.2-0.2-0.2-0.5,0-0.7c0.2-0.2,0.5-0.2,0.7,0
				c1.2,1.3,2.3,2.8,3.2,4.3c0.1,0.2,0.1,0.5-0.2,0.6C134.9,254.9,134.9,254.9,134.8,254.9z"/>
		</g>
		<g>
			<path class="st8" d="M197.3,251.3c0,0-0.1,0-0.1,0c-0.2-0.1-0.4-0.3-0.3-0.6c0.5-1.5,1.5-2.8,2.8-3.6c0.2-0.1,0.5-0.1,0.6,0.2
				c0.1,0.2,0.1,0.5-0.2,0.6c-1.1,0.7-2,1.8-2.4,3.1C197.7,251.1,197.5,251.3,197.3,251.3z"/>
		</g>
		<g>
			<path class="st8" d="M150.2,295C150.2,295,150.2,295,150.2,295c-4.6-0.2-9.3-0.5-14-0.8c-0.3,0-0.4-0.2-0.4-0.5
				c0-0.3,0.2-0.5,0.5-0.4c4.6,0.4,9.3,0.6,13.9,0.8c0.3,0,0.5,0.2,0.4,0.5C150.7,294.8,150.5,295,150.2,295z"/>
		</g>
		<g>
			<path class="st8" d="M184.7,294.7c-0.2,0-0.4-0.2-0.5-0.4c0-0.3,0.2-0.5,0.4-0.5c4.6-0.3,9.3-0.3,13.9-0.1c0.3,0,0.5,0.2,0.4,0.5
				c0,0.3-0.2,0.5-0.5,0.4C193.9,294.3,189.3,294.4,184.7,294.7C184.7,294.7,184.7,294.7,184.7,294.7z"/>
		</g>
		<g>
			<path class="st8" d="M135.1,269.6c-0.2,0-0.5-0.2-0.5-0.4c0-0.3,0.2-0.5,0.4-0.5c1.4-0.1,2.8-0.9,3.6-2.1
				c0.1-0.2,0.4-0.3,0.6-0.2c0.2,0.1,0.3,0.4,0.2,0.6C138.5,268.6,136.9,269.6,135.1,269.6C135.1,269.6,135.1,269.6,135.1,269.6z"/>
		</g>
		<g>
			<path class="st8" d="M200.3,268.7c-0.1,0-0.2,0-0.2-0.1c-2-1.1-3.7-2.7-5.1-4.5c-0.2-0.2-0.1-0.5,0.1-0.7
				c0.2-0.2,0.5-0.1,0.7,0.1c1.3,1.7,2.9,3.2,4.8,4.3c0.2,0.1,0.3,0.4,0.2,0.6C200.6,268.6,200.4,268.7,200.3,268.7z"/>
		</g>
		<g>
			<path class="st8" d="M201.7,261.9c-0.1,0-0.1,0-0.2,0c-0.2-0.1-0.4-0.4-0.3-0.6c0.9-2.4,0.4-5.2-1.2-7.3
				c-0.2-0.2-0.1-0.5,0.1-0.7c0.2-0.2,0.5-0.1,0.7,0.1c1.8,2.3,2.3,5.5,1.3,8.1C202.1,261.8,201.9,261.9,201.7,261.9z"/>
		</g>
		<g>
			<path class="st8" d="M132.4,263.1c-0.2,0-0.3-0.1-0.4-0.2c-1.4-2.3-1.2-5.4,0.4-7.5c0.2-0.2,0.4-0.2,0.7-0.1
				c0.2,0.2,0.2,0.4,0.1,0.7c-1.4,1.8-1.5,4.5-0.4,6.5c0.1,0.2,0.1,0.5-0.2,0.6C132.5,263.1,132.4,263.1,132.4,263.1z"/>
		</g>
		<g>
			<path class="st9" d="M174,294.4c-0.1,0-0.3-0.1-0.4-0.2c-6.8-8.2-11.2-18-12.9-28.5c0-0.3,0.1-0.5,0.4-0.5c0.2,0,0.5,0.1,0.5,0.4
				c1.6,10.3,6,20,12.7,28.1c0.2,0.2,0.1,0.5-0.1,0.7C174.2,294.3,174.1,294.4,174,294.4z"/>
		</g>
	</g>
</g>
<g id="DESIGNED_BY_FREEPIK">
</g>
</svg>
