<?xml version="1.0" encoding="utf-8"?>
<!-- Generator: Adobe Illustrator 24.2.3, SVG Export Plug-In . SVG Version: 6.00 Build 0)  -->
<svg version="1.1" xmlns="http://www.w3.org/2000/svg" xmlns:xlink="http://www.w3.org/1999/xlink" x="0px" y="0px"
	 viewBox="0 0 339.2 508.7" style="enable-background:new 0 0 339.2 508.7;" xml:space="preserve">
<style type="text/css">
	.st0{display:none;}
	.st1{display:inline;fill:#FFFFFF;}
	.st2{fill:#393762;}
	.st3{fill:#E48868;}
	.st4{fill:#EFC33B;}
	.st5{fill:#ECE0D3;}
	.st6{fill:#49478A;}
	.st7{fill:#E8A12B;}
</style>
<g id="BACKGROUND" class="st0">
	<rect x="-550.3" y="8.7" class="st1" width="500" height="500"/>
</g>
<g id="OBJECTS">
	<g>
		<g>
			<path class="st2" d="M172.7,216.9c8.7-3.2,15.5-10.5,14.7-20c-0.7-8.6-5.6-16.7-13.6-20.4c-2.8-1.3-5.9-2.1-9-2.2
				c-13-0.3-19.9,14.5-21.3,25.8c-0.7,5.9,3.9,8.6,8.1,11.8C157.9,216.5,165,219.8,172.7,216.9z"/>
		</g>
		<g>
			<g>
				<path class="st3" d="M168.1,215.9l4.4-9.5c0,0,3.6,1,5.2-0.5c0.6-0.6,1.3-3.6,1.6-7.4c0-0.5,0.1-0.9,0.1-1.4c0-0.5,2,0.9,2,0.4
					c0.1-1-1.8-3.9-1.8-5c0-4.8-0.6-9.5-2.4-11.3c-4-4.1-18.4-4.9-20.5,2.1c-2.1,7-0.4,14.9,5.3,20.4l-4.1,9.8L168.1,215.9z"/>
			</g>
		</g>
		<g>
			<path class="st2" d="M181.8,184.2c-7.4,7.9-12.3,18.8-22.7,21.9c-1-3.9-6.7-12.9-6.6-17c0.1-4,1.7-8.2,4.9-10.7
				c2.4-1.8,5.6-2.5,8.6-2.5C172.3,175.9,178.6,178.8,181.8,184.2z"/>
		</g>
		<g>
			<g>
				<path class="st2" d="M208.2,397.2l3.8,11.4c0,0,11.7,0.7,12,1.5l-16.8,4.6l-4.4-16L208.2,397.2z"/>
			</g>
			<g>
				<polygon class="st2" points="119.6,415.7 110,415.7 103,410.3 111.6,396.1 116.4,399 110.7,409.6 112.5,413.9 				"/>
			</g>
			<g>
				<polygon class="st2" points="184.1,350 205,406.8 211,405.6 200.7,345.4 200.7,345.4 183.6,292 140,292 132.3,346.3 
					132.3,346.3 107.6,402.8 112.6,406.1 145.3,356 147.7,350.1 163.2,315.8 				"/>
			</g>
			<g>
				<path class="st4" d="M157.4,205.8c0,0,8.9,2.8,13.4,8c4.5,5.2,11.7,20.1,11.9,21.8s-5.3,19.8-5.3,19.8l11.1,42.2
					c0,0-34.4,5.3-51.6,0l9-33.4c0,0-2.2-13.7-2.7-15.9c-1.5-6.2,1.1-15.8,2.3-22.3c1.1-6.5,6.3-14,8-15.5
					C155.2,208.9,157.4,205.8,157.4,205.8z"/>
			</g>
			<g>
				<polygon class="st5" points="130.9,276.2 190.5,265.7 195.7,298.7 135.2,307.8 				"/>
			</g>
			<g>
				<g>
					<path class="st3" d="M174.6,249.3l2.2,8.8c0,0,19.6-7.3,20.7-7.7c0,0,3.5-2.7,4.2-3.3c0.7-0.5,2.9-5.9,3.1-6.5s-4-0.8-4-0.8
						s-0.1-2.6-0.3-3.4c-0.1-0.5-1.1-2.5-1.5-1.1l-0.9,4l-1.3,1.3c-0.7,1-1.5,5-1.5,5L174.6,249.3z"/>
				</g>
				<g>
					<polygon class="st5" points="199.4,245.1 202,235.4 204.2,227.6 207,228.6 201.8,245.4 					"/>
				</g>
				<g>
					<path class="st4" d="M172.9,249.1c0,0,2.4-6.7,6.8-4c4.4,2.7,8-0.6,8-0.6l7.5,1.2l2.4,4.7l-22.8,9.6L172.9,249.1z"/>
				</g>
				<g>
					<path class="st3" d="M204.8,240.7c0.5-1.1-0.6-4.5-1-4.2c-0.4,0.3-0.6,2.1-0.6,2.1l0.4,1.1c0,0-0.7-0.3-0.7,0
						c0,0.3-0.3,1.4-0.3,1.4l-0.1,2.3L204.8,240.7z"/>
				</g>
			</g>
			<g>
				<path class="st4" d="M160.3,206.9c-4.1-2.8-18.6-3.3-20.3-2.2c-1.7,1.1,2.3,4.6,1.9,7c-0.4,2.3-8.9,5.4-6,10.4
					c2.9,5.1,11.3,11.1,11.3,11.1L160.3,206.9z"/>
			</g>
			<g>
				<path class="st6" d="M164.5,311.5c-0.1,0-0.2,0-0.2-0.1c-0.2-0.1-0.3-0.4-0.1-0.6l4.8-7.5c0.1-0.2,0.4-0.3,0.6-0.1
					c0.2,0.1,0.3,0.4,0.1,0.6l-4.8,7.5C164.7,311.4,164.6,311.5,164.5,311.5z"/>
			</g>
			<g id="XMLID_57_">
				<g>
					<path class="st3" d="M181.2,293.6c-1.4-0.3-2.3-3.5-2.6-5.5c-1.9-0.4-4.5-2.9-6.4-3.5c3.1,10.2,3.3,15.6,3.9,16.8
						c1.4,2.6,2.2,4,3.9,2.4c1.7-1.5,3,1.5,4.2,0c1.2-1.5,3.2,1.7,3.7-0.4c0.5-2.1-2.8-5-2.8-5S186.7,294.7,181.2,293.6z"/>
				</g>
			</g>
			<g>
				<path class="st4" d="M151.5,226.8c-1.8,6.3,21.1,66.6,21.1,66.6l9.8-2.5c0,0-3.7-13.8-3.1-18.9c0.6-5.1,0.5-6.9-3.5-11.3
					c-4.1-4.4-1.9-21.2-4.7-27.9C168.4,226.2,152.8,222.4,151.5,226.8z"/>
			</g>
			<g>
				<path class="st7" d="M172.9,261.7c-0.2,0-0.3-0.1-0.4-0.3c-1.7-4.4-1.4-9.2-1.1-13.8c0.1-1.2,0.2-2.5,0.2-3.7
					c0.2-6.1-0.5-12.1-2.2-17.9c-0.4-1.4-0.9-2.9-1.9-4c-0.9-1-2.4-1.6-3.7-1c-0.2,0.1-0.5,0-0.6-0.2c-0.1-0.2,0-0.5,0.2-0.6
					c1.7-0.8,3.6,0,4.7,1.2c1.1,1.2,1.7,2.9,2.1,4.3c1.7,5.9,2.4,12,2.2,18.2c0,1.2-0.1,2.5-0.2,3.7c-0.3,4.5-0.6,9.2,1,13.4
					c0.1,0.2,0,0.5-0.2,0.6C173,261.7,172.9,261.7,172.9,261.7z"/>
			</g>
			<g>
				<path class="st7" d="M165.6,271.9c-0.2,0-0.3-0.1-0.4-0.3c-1.4-3.7-2.7-6.8-3.9-9.7c-2.8-6.5-5.1-12.2-7-21.1
					c0-0.2,0.1-0.5,0.3-0.5c0.2,0,0.5,0.1,0.5,0.3c1.8,8.9,4.1,14.2,6.9,20.9c1.3,3,2.5,6,4,9.7c0.1,0.2,0,0.5-0.3,0.6
					C165.7,271.9,165.7,271.9,165.6,271.9z"/>
			</g>
			<g>
				<path class="st7" d="M144.6,228.5C144.5,228.5,144.5,228.5,144.6,228.5c-0.3-0.1-0.5-0.3-0.4-0.5c1.4-7,5.2-13.4,10.6-18
					c0.2-0.2,0.5-0.1,0.6,0.1c0.2,0.2,0.1,0.5-0.1,0.6c-5.3,4.5-9,10.7-10.3,17.5C145,228.4,144.8,228.5,144.6,228.5z"/>
			</g>
		</g>
	</g>
</g>
<g id="DESIGNED_BY_FREEPIK">
</g>
</svg>
