<?xml version="1.0" encoding="utf-8"?>
<!-- Generator: Adobe Illustrator 24.2.3, SVG Export Plug-In . SVG Version: 6.00 Build 0)  -->
<svg version="1.1" id="Layer_1" xmlns="http://www.w3.org/2000/svg" xmlns:xlink="http://www.w3.org/1999/xlink" x="0px" y="0px"
	 viewBox="0 0 512 512" style="enable-background:new 0 0 512 512;" xml:space="preserve">
<style type="text/css">
	.st0{fill:#FFFFFF;stroke:#000102;stroke-width:5;stroke-linecap:round;stroke-linejoin:round;stroke-miterlimit:10;}
</style>
<path class="st0" d="M230.7,155c-0.1-0.1-0.3-0.2-0.5-0.3l-19.2-6.7v-5.6c0-2.2-1.3-4.2-3.2-5.3c-0.2-0.1-0.8-0.2-0.8-0.3l0,0
	l-13-4.8v-0.7c14-7.1,22.6-20.3,24.1-35.9c6.5-3.5,9.8-10.8,8.2-18c-0.8-3.6-3.1-6.6-6.2-8.5l0.6-9c1.8-26.3-18.1-49.2-44.4-51
	s-49.2,18.1-51,44.4c-0.2,2.2-0.2,4.4,0,6.6l0.6,9c-3.2,1.8-5.4,4.9-6.3,8.5c-1.8,7.2,1.6,14.6,8.1,18c1.3,15,10.1,28.3,23.2,35.5
	v1.3l-11.5,4.5l0,0c-0.2,0.1-0.4,0.2-0.5,0.3c-1.9,1.1-3,3.1-2.9,5.3v5.6l-19.6,6.7c-0.2,0.1-0.5,0.2-0.7,0.3
	c-10.3,4.8-17.4,14.7-18.5,26c0,0.2-0.1,0.3-0.1,0.5V300c0,11.6,9.9,21.1,21.9,21.1c1.9,0,3.8-0.2,5.7-0.7l5.2,164.9
	c0,0.1,0,0.2,0,0.4c0.9,9.8,9.2,17.4,19.1,17.4h49c9.9,0,18.1-7.5,19.1-17.4c0-0.1,0-0.3,0-0.4l5.2-164.7c1.6,0.4,3.2,0.5,4.8,0.5
	c12.1,0,21.8-9.4,21.8-21.1V181.5c0-0.2,0.1-0.4,0-0.5C247.9,169.7,241,159.8,230.7,155z M237,181.8V280h-13.3l3.5-113.4
	C232.7,169.9,237,175.6,237,181.8z M135.6,285l-0.2-5h76.3l-0.2,5H135.6z M135,268l-3.4-105.9l6.6-2.2l14.4,18.3
	c2,2.6,5.7,3,8.3,1.1l0.7-0.6l-5.1,56.5c-0.1,1.4,0.2,2.7,1,3.8l11,16.6c1.8,2.8,5.5,3.5,8.3,1.7c0.7-0.4,1.3-1,1.7-1.7l11-16.6
	c0.7-1.1,1.1-2.5,1-3.8l-5.1-55.8c2.6,1.8,6.2,1.3,8.1-1.2l14.4-18.3l7.4,2.5L212,268H135z M178.4,234.2l-4.8,7.3l-4.8-7.3l4.8-53.1
	L178.4,234.2z M184,162.7l13.1-8.3l-9.2,11.7l-3.8-2.9L184,162.7z M182,149.4l-9,5.9l-10-6.5v-13.2c3.2,0.8,6.5,1.2,9.8,1.2
	c3.1,0,6.2-0.3,9.2-1V149.4z M162.6,162.9l-4.2,3.2l-9.2-11.7L162.6,162.9z M146.8,32.3c13.5-14.5,36.2-15.2,50.6-1.7
	c5.6,5.2,9.3,12.1,10.7,19.6c-3.5-7.6-11-12.5-19.3-12.9L185,37c-2-0.1-4,0.9-5.2,2.5c-6.8,9.5-18.1,14.6-29.7,13.3l-6.5-0.7
	c-2-0.2-4.1,0.4-5.7,1.7c-0.3,0.2-0.5,0.5-0.8,0.7C137.7,46.3,141.1,38.4,146.8,32.3z M139.5,91.2c0-2.9-2.1-5.4-5-5.9
	c-1.9-0.3-3.4-2-3.3-4c0-0.2,0-0.5,0.1-0.7c0.2,0.1,0.3,0.2,0.5,0.2c5.8,2.3,8.5,3.1,11.3,1.4c1.6-1,2.7-2.8,2.9-4.7l1-12.9l2,0.2
	c14.7,1.6,29.2-4.3,38.7-15.7l0.7,0c3.8,0.2,7.3,2.5,9,5.9l6,24.9c0.8,3.2,4,5.2,7.2,4.4c1-0.2,1.9-0.7,2.7-1.4l1.5-1.4
	c-0.1,1.8-1.5,3.4-3.3,3.7c-2.9,0.5-5,3-5,6c0.1,18.5-14.9,33.6-33.4,33.7s-33.6-14.9-33.7-33.4C139.5,91.5,139.5,91.3,139.5,91.2
	L139.5,91.2z M119.7,166.2l3.7,113.8H109v-98.2C109.9,175.2,113.9,169.4,119.7,166.2L119.7,166.2z M118.9,309.1
	c-5.4,0-9.9-4.1-9.9-9.1v-8h14.8l0.5,15.5C122.6,308.5,120.8,309,118.9,309.1L118.9,309.1z M141.9,484.5L135.9,297H168v194h-19
	C145.3,491,142.3,488.2,141.9,484.5L141.9,484.5z M198,491h-18V297h31.1l-5.9,187.5C204.8,488.2,201.7,491,198,491z M227.2,309.1
	c-1.6-0.1-3.1-0.5-4.5-1.2l0.5-15.9H237v8C237,305,232.6,309.1,227.2,309.1z"/>
<path class="st0" d="M401.8,288L401.8,288c-9.9,0.2-19.6,2.2-28.7,6c-19.9,8.2-32.5,23.4-36.3,43.9c-0.3,1.7,0.1,3.4,1.1,4.7
	c1,1.3,2.6,2.2,4.3,2.3c1.8,0.1,3.5,0.2,5.2,0.2c18.6,0,34.7-8.2,46.7-23.8c6-7.8,10.5-16.7,13.4-26.1c0.5-1.7,0.1-3.6-1-5
	C405.4,288.7,403.6,287.9,401.8,288z M384.6,313.9c-9.1,11.9-20.6,18.3-34.2,19c7.8-23.4,29.7-30.4,42.3-32.5
	C390.5,305.3,387.8,309.8,384.6,313.9z"/>
<path class="st0" d="M303.5,324.1c2.6,0,5-1.7,5.7-4.2c6.2-20,2.2-39.3-11.6-55.9c-6.3-7.6-13.9-13.9-22.5-18.8
	c-2.9-1.6-6.6-0.4-8.1,2.5c-0.3,0.5-0.4,1-0.6,1.5c-1.8,9.7-1.9,19.6-0.3,29.3c3.6,21.2,15.7,36.8,34.9,45.1
	C301.8,324,302.7,324.1,303.5,324.1z M299.4,309.3c-11.6-7-18.8-17.9-21.4-32.5c-0.9-5.3-1.2-10.6-0.9-15.9
	c4.1,3.2,7.9,6.8,11.3,10.8C298,283.2,301.6,295.9,299.4,309.3L299.4,309.3z"/>
<path class="st0" d="M397.9,380h-47.6c-0.2-1-0.5-0.9-0.9-1.3c-34.2-38-14.2-81.8-3.9-98.8c1.7-2.8,0.8-6.5-2-8.2s-6.5-0.8-8.2,2
	c-5.1,8.5-14,25.9-16.4,46.5c-2.5,22.1,2.9,41.8,16.1,59.8h-35.2c-3.3,0-6,2.6-6,5.8c0,0.3,0,0.6,0.1,1l16.4,111.2
	c0.4,2.9,3,5.1,5.9,5.1h65.4c3,0,5.5-2.1,5.9-5.1l16.4-111.2c0.3-1.7-0.3-3.4-1.4-4.7C401.3,380.7,399.7,380,397.9,380z M391,392
	l-0.6,4h-83l-0.6-4H391z M376.4,491h-55.1l-12.2-83h79.4L376.4,491z"/>
<path class="st0" d="M378.9,142h-0.3c-36.5,0.1-65.9,29.7-65.9,66.1c0.1,36.5,29.7,65.9,66.1,65.9h0.3c36.4-0.2,65.8-29.9,65.7-66.3
	C444.7,171.4,415.2,142,378.9,142z M417.2,245.9c-10,10.3-23.8,16-38.1,16.1h-0.2c-29.8,0.1-54-24.1-54.1-53.9
	c-0.1-29.8,24.1-54,53.9-54.1h0.2c29.8,0,54,24.1,54,53.9C432.9,222.1,427.3,235.8,417.2,245.9L417.2,245.9z"/>
</svg>
